<svg xmlns="http://www.w3.org/2000/svg" viewBox="0 0 32 32" width="32" height="32">
  <!-- Background -->
  <rect width="32" height="32" fill="#f0f0f0" stroke="#333" stroke-width="1"/>
  
  <!-- Checkered flag pattern -->
  <!-- Row 1 -->
  <rect x="2" y="2" width="4" height="4" fill="#000"/>
  <rect x="6" y="2" width="4" height="4" fill="#fff"/>
  <rect x="10" y="2" width="4" height="4" fill="#000"/>
  <rect x="14" y="2" width="4" height="4" fill="#fff"/>
  <rect x="18" y="2" width="4" height="4" fill="#000"/>
  <rect x="22" y="2" width="4" height="4" fill="#fff"/>
  <rect x="26" y="2" width="4" height="4" fill="#000"/>
  
  <!-- Row 2 -->
  <rect x="2" y="6" width="4" height="4" fill="#fff"/>
  <rect x="6" y="6" width="4" height="4" fill="#000"/>
  <rect x="10" y="6" width="4" height="4" fill="#fff"/>
  <rect x="14" y="6" width="4" height="4" fill="#000"/>
  <rect x="18" y="6" width="4" height="4" fill="#fff"/>
  <rect x="22" y="6" width="4" height="4" fill="#000"/>
  <rect x="26" y="6" width="4" height="4" fill="#fff"/>
  
  <!-- Row 3 -->
  <rect x="2" y="10" width="4" height="4" fill="#000"/>
  <rect x="6" y="10" width="4" height="4" fill="#fff"/>
  <rect x="10" y="10" width="4" height="4" fill="#000"/>
  <rect x="14" y="10" width="4" height="4" fill="#fff"/>
  <rect x="18" y="10" width="4" height="4" fill="#000"/>
  <rect x="22" y="10" width="4" height="4" fill="#fff"/>
  <rect x="26" y="10" width="4" height="4" fill="#000"/>
  
  <!-- Row 4 -->
  <rect x="2" y="14" width="4" height="4" fill="#fff"/>
  <rect x="6" y="14" width="4" height="4" fill="#000"/>
  <rect x="10" y="14" width="4" height="4" fill="#fff"/>
  <rect x="14" y="14" width="4" height="4" fill="#000"/>
  <rect x="18" y="14" width="4" height="4" fill="#fff"/>
  <rect x="22" y="14" width="4" height="4" fill="#000"/>
  <rect x="26" y="14" width="4" height="4" fill="#fff"/>
  
  <!-- Row 5 -->
  <rect x="2" y="18" width="4" height="4" fill="#000"/>
  <rect x="6" y="18" width="4" height="4" fill="#fff"/>
  <rect x="10" y="18" width="4" height="4" fill="#000"/>
  <rect x="14" y="18" width="4" height="4" fill="#fff"/>
  <rect x="18" y="18" width="4" height="4" fill="#000"/>
  <rect x="22" y="18" width="4" height="4" fill="#fff"/>
  <rect x="26" y="18" width="4" height="4" fill="#000"/>
  
  <!-- Row 6 -->
  <rect x="2" y="22" width="4" height="4" fill="#fff"/>
  <rect x="6" y="22" width="4" height="4" fill="#000"/>
  <rect x="10" y="22" width="4" height="4" fill="#fff"/>
  <rect x="14" y="22" width="4" height="4" fill="#000"/>
  <rect x="18" y="22" width="4" height="4" fill="#fff"/>
  <rect x="22" y="22" width="4" height="4" fill="#000"/>
  <rect x="26" y="22" width="4" height="4" fill="#fff"/>
  
  <!-- Row 7 -->
  <rect x="2" y="26" width="4" height="4" fill="#000"/>
  <rect x="6" y="26" width="4" height="4" fill="#fff"/>
  <rect x="10" y="26" width="4" height="4" fill="#000"/>
  <rect x="14" y="26" width="4" height="4" fill="#fff"/>
  <rect x="18" y="26" width="4" height="4" fill="#000"/>
  <rect x="22" y="26" width="4" height="4" fill="#fff"/>
  <rect x="26" y="26" width="4" height="4" fill="#000"/>
</svg>
